<svg xmlns="http://www.w3.org/2000/svg" width="152" height="62" viewBox="0 0 152 62">
<g>
<path d="M 0.00 0.00 L 152.00 0.00 L 152.00 62.00 L 0.00 62.00 ZM 84.67 34.33 C86.07,35.74 100.51,35.03 102.78,33.44 C105.14,31.79 105.95,25.71 103.98,24.48 C103.36,24.10 103.20,21.96 103.58,19.10 C104.51,12.09 103.01,11.00 92.43,11.00 L 84.00 11.00 L 84.00 22.33 C84.00,28.57 84.30,33.97 84.67,34.33 ZM 22.00 11.00 L 22.00 35.00 L 24.44 35.00 C26.45,35.00 26.93,34.44 27.19,31.75 C27.49,28.60 27.67,28.48 32.87,27.96 C36.87,27.56 38.72,26.83 40.12,25.10 C42.82,21.77 42.56,16.46 39.55,13.45 C37.37,11.28 36.22,11.00 29.55,11.00 ZM 49.00 34.21 C49.00,34.65 50.14,35.00 51.52,35.00 C53.30,35.00 54.33,34.26 55.00,32.50 C55.86,30.23 56.48,30.00 61.81,30.00 C67.10,30.00 67.79,30.25 68.82,32.50 C69.59,34.20 70.76,35.00 72.48,35.00 C73.87,35.00 75.00,34.66 75.00,34.25 C75.00,33.83 72.79,28.55 70.09,22.50 C65.30,11.76 65.10,11.50 61.93,11.50 C58.75,11.50 58.56,11.75 53.84,22.46 C51.18,28.49 49.00,33.78 49.00,34.21 ZM 114.04 33.25 C113.98,35.98 117.85,35.42 119.18,32.50 C120.21,30.25 120.90,30.00 126.18,30.00 C131.46,30.00 132.16,30.25 133.18,32.50 C133.92,34.13 135.14,35.00 136.66,35.00 C139.65,35.00 139.61,34.60 135.93,26.36 C130.39,13.96 129.39,11.42 127.89,11.07 C127.51,10.99 127.09,11.04 126.56,11.11 C126.36,11.14 126.15,11.16 125.92,11.19 C123.11,11.48 122.55,12.24 118.48,21.50 C116.05,27.00 114.05,32.29 114.04,33.25 ZM 35.07 22.96 C34.00,23.53 31.75,24.00 30.07,24.00 C27.10,24.00 27.00,23.85 27.00,19.50 L 27.00 15.00 L 30.80 15.00 C32.89,15.00 35.14,15.54 35.80,16.20 C37.64,18.04 37.23,21.81 35.07,22.96 ZM 98.99 29.51 C97.76,31.00 90.93,31.60 89.67,30.33 C89.30,29.97 89.00,28.62 89.00,27.33 C89.00,25.20 89.43,25.00 94.03,25.00 C99.43,25.00 101.31,26.71 98.99,29.51 ZM 97.99 19.51 C96.75,21.01 90.91,21.58 89.67,20.33 C89.30,19.97 89.00,18.62 89.00,17.33 C89.00,15.23 89.45,15.00 93.53,15.00 C98.43,15.00 100.23,16.82 97.99,19.51 ZM 65.39 25.18 C65.11,25.63 63.56,26.00 61.94,26.00 C58.62,26.00 58.15,24.16 60.43,20.05 L 61.79 17.60 L 63.84 20.98 C64.97,22.84 65.67,24.73 65.39,25.18 ZM 129.39 25.18 C129.11,25.63 127.56,26.00 125.94,26.00 C122.62,26.00 122.15,24.16 124.43,20.05 L 125.79 17.60 L 127.84 20.98 C128.97,22.84 129.67,24.73 129.39,25.18 ZM 83.11 43.50 C83.14,45.70 83.38,46.96 83.64,46.31 C83.91,45.65 84.73,45.34 85.46,45.62 C86.20,45.91 87.15,45.57 87.57,44.88 C88.14,43.97 88.55,44.16 89.10,45.57 C89.64,46.95 89.86,46.36 89.88,43.50 C89.89,39.59 89.86,39.55 88.34,41.73 L 86.79 43.96 L 84.93 41.73 L 83.07 39.50 ZM 60.09 43.50 C60.13,46.23 60.37,46.91 60.87,45.65 C61.53,43.98 61.72,43.95 62.92,45.40 C64.93,47.82 66.00,47.33 66.00,44.00 C66.00,42.35 65.55,41.00 65.00,41.00 C64.45,41.00 63.99,41.79 63.98,42.75 C63.96,44.17 63.58,44.03 62.00,42.00 L 60.04 39.50 Z" fill="rgb(10,7,7)"/>
<path d="M 60.09 43.50 L 60.04 39.50 L 62.00 42.00 C63.58,44.03 63.96,44.17 63.98,42.75 C63.99,41.79 64.45,41.00 65.00,41.00 C65.55,41.00 66.00,42.35 66.00,44.00 C66.00,47.33 64.93,47.82 62.92,45.40 C61.72,43.95 61.53,43.98 60.87,45.65 C60.37,46.91 60.13,46.23 60.09,43.50 ZM 83.11 43.50 L 83.07 39.50 L 84.93 41.73 L 86.79 43.96 L 88.34 41.73 C89.86,39.55 89.89,39.59 89.88,43.50 C89.86,46.36 89.64,46.95 89.10,45.57 C88.55,44.16 88.14,43.97 87.57,44.88 C87.15,45.57 86.20,45.91 85.46,45.62 C84.73,45.34 83.91,45.65 83.64,46.31 C83.38,46.96 83.14,45.70 83.11,43.50 ZM 22.00 23.00 L 22.00 11.00 L 29.55 11.00 C36.22,11.00 37.37,11.28 39.55,13.45 C42.56,16.46 42.82,21.77 40.12,25.10 C38.72,26.83 36.87,27.56 32.87,27.96 C27.67,28.48 27.49,28.60 27.19,31.75 C26.93,34.44 26.45,35.00 24.44,35.00 L 22.00 35.00 L 22.00 23.00 ZM 35.07 22.96 C37.23,21.81 37.64,18.04 35.80,16.20 C35.14,15.54 32.89,15.00 30.80,15.00 L 27.00 15.00 L 27.00 19.50 C27.00,23.85 27.10,24.00 30.07,24.00 C31.75,24.00 34.00,23.53 35.07,22.96 ZM 49.00 34.21 C49.00,33.78 51.18,28.49 53.84,22.46 C58.56,11.75 58.75,11.50 61.93,11.50 C65.10,11.50 65.30,11.76 70.09,22.50 C72.79,28.55 75.00,33.83 75.00,34.25 C75.00,34.66 73.87,35.00 72.48,35.00 C70.76,35.00 69.59,34.20 68.82,32.50 C67.79,30.25 67.10,30.00 61.81,30.00 C56.48,30.00 55.86,30.23 55.00,32.50 C54.33,34.26 53.30,35.00 51.52,35.00 C50.14,35.00 49.00,34.65 49.00,34.21 ZM 65.39 25.18 C65.67,24.73 64.97,22.84 63.84,20.98 L 61.79 17.60 L 60.43 20.05 C58.15,24.16 58.62,26.00 61.94,26.00 C63.56,26.00 65.11,25.63 65.39,25.18 ZM 84.67 34.33 C84.30,33.97 84.00,28.57 84.00,22.33 L 84.00 11.00 L 92.43 11.00 C103.01,11.00 104.51,12.09 103.58,19.10 C103.20,21.96 103.36,24.10 103.98,24.48 C105.95,25.71 105.14,31.79 102.78,33.44 C100.51,35.03 86.07,35.74 84.67,34.33 ZM 98.99 29.51 C101.31,26.71 99.43,25.00 94.03,25.00 C89.43,25.00 89.00,25.20 89.00,27.33 C89.00,28.62 89.30,29.97 89.67,30.33 C90.93,31.60 97.76,31.00 98.99,29.51 ZM 97.99 19.51 C100.23,16.82 98.43,15.00 93.53,15.00 C89.45,15.00 89.00,15.23 89.00,17.33 C89.00,18.62 89.30,19.97 89.67,20.33 C90.91,21.58 96.75,21.01 97.99,19.51 ZM 114.04 33.25 C114.05,32.29 116.05,27.00 118.48,21.50 C122.55,12.24 123.11,11.48 125.92,11.19 C129.25,10.85 128.46,9.64 135.93,26.36 C139.61,34.60 139.65,35.00 136.66,35.00 C135.14,35.00 133.92,34.13 133.18,32.50 C132.16,30.25 131.46,30.00 126.18,30.00 C120.90,30.00 120.21,30.25 119.18,32.50 C117.85,35.42 113.98,35.98 114.04,33.25 ZM 129.39 25.18 C129.67,24.73 128.97,22.84 127.84,20.98 L 125.79 17.60 L 124.43 20.05 C122.15,24.16 122.62,26.00 125.94,26.00 C127.56,26.00 129.11,25.63 129.39,25.18 Z" fill="rgb(203,65,65)"/>
</g>
</svg>